<?xml version="1.0"?><svg width="612.164" height="613.171" xmlns="http://www.w3.org/2000/svg">
 <title>red person symbol</title>
 <g>
  <title>Layer 1</title>
  <path d="m302.803009,90.423897" id="path2457" fill="#56aaff" stroke="#ffffff"/>
  <g id="svg_1">
   <path stroke="#000000" d="m296.803009,129.26001c22.550995,0 40.834991,-18.284012 40.834991,-40.836113c0,-22.551003 -18.283997,-40.833996 -40.834991,-40.833996c-22.552002,0 -40.834015,18.282993 -40.834015,40.833996c0,22.552101 18.282013,40.836113 40.834015,40.836113z" id="path2455" fill="#000000"/>
   <path stroke="#000000" d="m255.104996,138.272995c-28.917999,0 -52.172989,23.584 -52.172989,53l0,125.375015c0,24.375 35.672989,24.375 35.672989,0l0,-114.642014l8.444,0l0,313.907028c0,32.588989 47.503006,31.630005 47.503006,0l0,-182.220032l8.182007,0l0,182.220032c0,31.630005 47.764984,32.588989 47.764984,0l0,-313.907028l8.247009,0l0,114.642014c0,24.561981 35.487,24.561981 35.421997,0l0,-124.625015c0,-27.125 -21.063995,-53.694 -52.813995,-53.694l-86.249008,-0.056z" id="path2459" fill="#000000"/>
  </g>
 </g>
</svg>